<svg width="105" height="81" viewBox="0 0 105 81" fill="none" xmlns="http://www.w3.org/2000/svg">
<g opacity="0.848005" filter="url(#filter0_f)">
<rect x="27.5" y="28" width="50" height="25" rx="12.5" fill="#7752BE"/>
</g>
<g filter="url(#filter1_d)">
<rect x="27" y="3" width="50" height="50" rx="19" fill="#7752BE"/>
</g>
<path d="M58.2 27.7999C57.3 26.8499 56.1 26.1999 54.85 25.9499C54.3 25.7999 53.75 25.6999 53.2 25.6499C54.6 23.9999 54.35 21.4999 52.7 20.0999C51.05 18.6999 48.55 18.9499 47.15 20.5999C45.75 22.2499 46 24.7499 47.65 26.1499C47.95 26.3999 48.25 26.5999 48.55 26.6999V27.7999L47.75 27.0499C47.05 26.3499 45.9 26.3499 45.15 27.0499C44.45 27.7499 44.4 28.8499 45.1 29.5499L47.4 32.2499C47.5 32.9499 47.75 33.5999 48.1 34.1999C48.35 34.6499 48.7 35.0999 49.05 35.4499V36.3999C49.05 36.6999 49.25 36.8999 49.55 36.8999H56.35C56.6 36.8999 56.85 36.6499 56.85 36.3999V35.0999C57.8 33.9499 58.3 32.4999 58.3 31.0499V28.1499C58.35 27.9499 58.3 27.8499 58.2 27.7999V27.7999ZM47.2 23.0999C47.2 21.4499 48.55 20.1499 50.2 20.1999C51.85 20.1999 53.15 21.5499 53.1 23.1999C53.1 24.0999 52.7 24.8999 52 25.4499V22.9499C51.9745 22.5166 51.7842 22.1095 51.4681 21.812C51.152 21.5145 50.7341 21.3492 50.3 21.3499C49.4 21.2999 48.6 22.0499 48.6 22.9499V25.5499C47.75 25.0499 47.25 24.0999 47.2 23.0999ZM57.35 30.9999C57.4 32.2999 56.95 33.5499 56.1 34.5499C56 34.6499 55.9 34.7499 55.9 34.8999V35.9499H50.1V35.2499C50.1 35.0999 50 34.9499 49.9 34.8499C49.55 34.5499 49.25 34.1999 49 33.7499C48.7 33.2499 48.5 32.6499 48.4 32.0499C48.4 31.9499 48.35 31.8499 48.3 31.7499L45.9 28.8999C45.75 28.7499 45.65 28.5499 45.65 28.2999C45.65 28.0999 45.75 27.8499 45.9 27.6999C46.25 27.3999 46.75 27.3999 47.1 27.6999L48.55 29.1499V30.6499L49.5 30.1499V22.9499C49.55 22.5999 49.85 22.2999 50.25 22.3499C50.6 22.3499 50.95 22.5999 50.95 22.9499V28.6999L51.95 28.8999V26.5999C52 26.5499 52.05 26.5499 52.1 26.4999C52.45 26.4999 52.8 26.5499 53.15 26.5999V29.1499L53.95 29.2999V26.6999L54.55 26.8499C54.8 26.8999 55.05 26.9999 55.3 27.0999V29.5999L56.1 29.7499V27.4499C56.55 27.6499 56.95 27.9499 57.3 28.2999L57.35 30.9999V30.9999Z" fill="white"/>
<defs>
<filter id="filter0_f" x="0.317183" y="0.817183" width="104.366" height="79.3656" filterUnits="userSpaceOnUse" color-interpolation-filters="sRGB">
<feFlood flood-opacity="0" result="BackgroundImageFix"/>
<feBlend mode="normal" in="SourceGraphic" in2="BackgroundImageFix" result="shape"/>
<feGaussianBlur stdDeviation="13.5914" result="effect1_foregroundBlur"/>
</filter>
<filter id="filter1_d" x="23" y="3" width="58" height="58" filterUnits="userSpaceOnUse" color-interpolation-filters="sRGB">
<feFlood flood-opacity="0" result="BackgroundImageFix"/>
<feColorMatrix in="SourceAlpha" type="matrix" values="0 0 0 0 0 0 0 0 0 0 0 0 0 0 0 0 0 0 127 0"/>
<feOffset dy="4"/>
<feGaussianBlur stdDeviation="2"/>
<feColorMatrix type="matrix" values="0 0 0 0 0.466667 0 0 0 0 0.321569 0 0 0 0 0.745098 0 0 0 0.1 0"/>
<feBlend mode="normal" in2="BackgroundImageFix" result="effect1_dropShadow"/>
<feBlend mode="normal" in="SourceGraphic" in2="effect1_dropShadow" result="shape"/>
</filter>
</defs>
</svg>
